# xmcd CD database file
#
# Track frame offsets:
#	150
#	144904
#	251219
#
# Disc length: 4202 seconds
#
# Revision: 0
# Processed by: cddbd v1.5.2PL0 Copyright (c) Steve Scherf et al.
# Submitted via: CDex 1.70beta2
#
DISCID=24106803
DTITLE=Kris Wanders - In Remembrance of the Human Race
DYEAR=2009
DGENRE=Jazz
TTITLE0=In Remembrance of the Human Race
TTITLE1=Uwaga
TTITLE2=A Man's Dream
EXTD=YEAR: 2009
EXTT0=
EXTT1=
EXTT2=
PLAYORDER=
